<svg width="24" height="24" viewBox="0 0 24 24" fill="none" xmlns="http://www.w3.org/2000/svg">
<path d="M11.9577 5.95839C13.4327 5.95839 14.7535 6.46672 15.7952 7.45839L18.6493 4.60422C16.916 2.99173 14.6535 2.00006 11.9577 2.00006C8.0494 2.00006 4.67024 4.24172 3.02441 7.50839L6.3494 10.0875C7.1369 7.71672 9.3494 5.95839 11.9577 5.95839Z" fill="#202531"/>
<path d="M21.532 12.2294C21.532 11.5753 21.4695 10.942 21.3737 10.3336H11.957V14.0919H17.3487C17.107 15.3253 16.407 16.3753 15.357 17.0836L18.5778 19.5836C20.457 17.8419 21.532 15.2669 21.532 12.2294Z" fill="#202531"/>
<path d="M6.3455 13.913C6.1455 13.3088 6.02884 12.6672 6.02884 12.0005C6.02884 11.3338 6.14134 10.6922 6.3455 10.088L3.02051 7.50885C2.34134 8.85885 1.95801 10.3838 1.95801 12.0005C1.95801 13.6172 2.34134 15.1422 3.02467 16.4922L6.3455 13.913Z" fill="#202531"/>
<path d="M11.958 22C14.658 22 16.9288 21.1125 18.5788 19.5791L15.358 17.0792C14.4622 17.6833 13.308 18.0375 11.958 18.0375C9.34967 18.0375 7.13717 16.2792 6.3455 13.9083L3.02051 16.4875C4.67051 19.7583 8.04967 22 11.958 22Z" fill="#202531"/>
</svg>
