<svg xmlns="http://www.w3.org/2000/svg" width="24" height="24" fill="none"><path fill="#7D53FF" d="M10.39 17.768a.459.459 0 0 0-.214-.327l-1.28-.765c6.632-2.26 9.406-6.52 9.522-6.708a.418.418 0 0 0 .059-.34.427.427 0 0 0-.206-.282L16.579 8.33c2.909-3.544 7.173-6.323 7.218-6.354a.45.45 0 0 0 .201-.416.442.442 0 0 0-.273-.372c-5.67-2.349-9.29-.662-10.775.358v-.77a.44.44 0 0 0-.188-.362.431.431 0 0 0-.402-.058C7.509 1.97 5.374 5.529 4.569 7.359l-.34-.855a.446.446 0 0 0-.77-.107C-1.526 12.774.864 17.526 1.38 18.403a20.544 20.544 0 0 0-1.37 4.327.448.448 0 1 0 .877.174 19.629 19.629 0 0 1 1.258-4.023c1.476.524 2.743.716 3.803.716 2.846 0 4.238-1.378 4.318-1.458a.453.453 0 0 0 .125-.372Zm-8.25.16a6.22 6.22 0 0 1-.278-.554C5.84 9.462 13.738 5.47 13.836 5.422a.447.447 0 1 1 .398.8c-.094.045-7.93 4.015-11.715 11.841a7.857 7.857 0 0 1-.38-.134ZM23.552 15.886h-1.805a2.257 2.257 0 0 0-2.252 2.252c0 .748-.609 1.357-1.357 1.357H13.63a2.257 2.257 0 0 0-2.252 2.252c0 .748-.61 1.357-1.357 1.357H6.702a.45.45 0 0 0-.448.448.45.45 0 0 0 .448.448h3.318a2.257 2.257 0 0 0 2.252-2.253c0-.747.61-1.356 1.357-1.356h4.51a2.257 2.257 0 0 0 2.252-2.253c0-.748.609-1.357 1.357-1.357h1.804a.45.45 0 0 0 .448-.447.45.45 0 0 0-.448-.448ZM4.772 23.1H3.71a.45.45 0 0 0-.447.448.45.45 0 0 0 .447.448h1.062a.45.45 0 0 0 .448-.448.45.45 0 0 0-.448-.448Z"/></svg>